Coordinates
nRows=114
nColumns=2
inDegrees=yes
endheader
time	ankle_angle_r	
3.14919	  9.479820	
3.22077	  9.480687	
3.29234	  9.480778	
3.36391	  9.381172	
3.43548	  9.372783	
3.50706	  9.461618	
3.57863	  9.456647	
3.6502	  9.447568	
3.72177	  9.495130	
3.79335	  9.485278	
3.86492	  9.434712	
3.93649	  9.447472	
4.00806	  9.492575	
4.07964	  9.486548	
4.15121	  9.420059	
4.22278	  9.393413	
4.29435	  9.473101	
4.36593	  9.514506	
4.4375	  9.447734	
4.50907	  9.399475	
4.58065	  9.410562	
4.65222	  9.398128	
4.72379	  9.336659	
4.79536	  9.331055	
4.86694	  9.386855	
4.93851	  9.390693	
5.01008	  9.349308	
5.08165	  9.348271	
5.15323	  9.393781	
5.2248	  9.376443	
5.29637	  9.322081	
5.36794	  9.348577	
5.43952	  9.389749	
5.51109	  9.391020	
5.58266	  9.393325	
5.65423	  9.433936	
5.72581	  9.460933	
5.79738	  9.403654	
5.86895	  9.384407	
5.94052	  9.471848	
6.0121	  9.532179	
6.08367	  9.492248	
6.15524	  9.452928	
6.22681	  9.487315	
6.29839	  9.482928	
6.36996	  9.409505	
6.44153	  9.394242	
6.5131	  9.432158	
6.58468	  9.411072	
6.65625	  9.357015	
6.72782	  9.389090	
6.7994	  9.450887	
6.87097	  9.434671	
6.94254	  9.433280	
7.01411	  9.499175	
7.08569	  9.528916	
7.15726	  9.497407	
7.22883	  9.473744	
7.3004	  9.475413	
7.37198	  9.462004	
7.44355	  9.415231	
7.51512	  9.400468	
7.58669	  9.484476	
7.65827	  9.540358	
7.72984	  9.480308	
7.80141	  9.470445	
7.87298	  9.514848	
7.94456	  9.493104	
8.01613	  9.462239	
8.0877	  9.449061	
8.15927	  9.432648	
8.23085	  9.404200	
8.30242	  9.389011	
8.37399	  9.419598	
8.44556	  9.413043	
8.51714	  9.361942	
8.58871	  9.352528	
8.66028	  9.383640	
8.73185	  9.383179	
8.80343	  9.335719	
8.875	  9.333168	
8.94657	  9.378851	
9.01815	  9.381254	
9.08972	  9.363391	
9.16129	  9.407342	
9.23286	  9.448387	
9.30444	  9.418418	
9.37601	  9.445254	
9.44758	  9.528512	
9.51915	  9.514081	
9.59073	  9.447953	
9.6623	  9.442164	
9.73387	  9.457376	
9.80544	  9.455367	
9.87702	  9.470344	
9.94859	  9.451575	
10.0202	  9.421937	
10.0917	  9.438278	
10.1633	  9.414655	
10.2349	  9.429857	
10.3065	  9.521471	
10.378	  9.527391	
10.4496	  9.452909	
10.5212	  9.401522	
10.5927	  9.400611	
10.6643	  9.384717	
10.7359	  9.340931	
10.8075	  9.362181	
10.879	  9.405088	
10.9506	  9.374005	
11.0222	  9.349729	
11.0937	  9.386108	
11.1653	  9.387669	
11.2369	  9.323301	
